# xmcd
#
# Track frame offsets:
#       150
#       2758
#       5418
#       5718
#       7615
#       9436
#       11668
#       13662
#       15368
#       17736
#       19671
#       22879
#       25047
#       26528
#       29913
#       32192
#       34121
#       36148
#       38137
#       38574
#
# Disc length: 659 seconds
#
# Revision: 0
# Processed by: cddbd v1.4PL0 Copyright (c) Steve Scherf et al.
# Submitted via: WhereIsIt 3.24
#
DISCID=cc029114
DTITLE=Baglady - 5 plus (Tiny Hardcore Gameshow Tunes)
DYEAR=1900
DGENRE=
TTITLE0=Momus
TTITLE1=Rare Breed
TTITLE2=Funkenstört
TTITLE3=Question Pour Un Champion
TTITLE4=Fake Heads
TTITLE5=Friends Like These
TTITLE6=The Bleakest Pink
TTITLE7=Hands
TTITLE8=Forbidden Planet
TTITLE9=Book Of Madmen
TTITLE10=We've Collected Enough Money To Fight
TTITLE11=Ziehung Der Lottozahlen
TTITLE12=Dance Fast, Make Love Slow
TTITLE13=Das Quiz
TTITLE14=The Television Scares Them Away
TTITLE15=Skinning Swines
TTITLE16=Please Don't Eat The Daisies
TTITLE17=Afl.:Pussycat
TTITLE18=I Solve all my Problems With A Penis
TTITLE19=The Lady In The Black Dress Can't Hear You #1
EXTD=
EXTT0=
EXTT1=
EXTT2=
EXTT3=
EXTT4=
EXTT5=
EXTT6=
EXTT7=
EXTT8=
EXTT9=
EXTT10=
EXTT11=
EXTT12=
EXTT13=
EXTT14=
EXTT15=
EXTT16=
EXTT17=
EXTT18=
EXTT19=
PLAYORDER=
